<svg width="33" height="36" viewBox="0 0 33 36" fill="none" xmlns="http://www.w3.org/2000/svg">
<path fill-rule="evenodd" clip-rule="evenodd" d="M27.0272 7.8494C28.4054 7.89496 29.5944 8.26729 30.5611 8.93014C32.0646 9.96112 32.8139 11.5484 32.9688 13.1181C33.1224 14.6748 32.7069 16.3174 31.7542 17.5997C30.7783 18.9133 29.2335 19.8426 27.2634 19.8426H6.17478L6.04651 19.8198C3.71677 19.4054 2.03643 18.4535 1.03158 17.0893C0.0274959 15.7261 -0.161158 14.1412 0.115341 12.7419C0.388215 11.3609 1.12709 10.0709 2.12675 9.18236C2.64708 8.71984 3.2892 8.32805 4.00491 8.12322C4.01425 7.28426 4.24991 6.49865 4.66773 5.8037C5.35436 4.66163 6.47299 3.85643 7.65987 3.3962C9.30565 2.75802 11.4893 2.67401 13.1856 3.66922C14.1502 2.13607 15.4229 1.09223 16.863 0.518337C18.7999 -0.253562 20.8802 -0.11122 22.6272 0.601566C24.3653 1.31073 25.881 2.62886 26.6376 4.35244C27.1115 5.43221 27.2663 6.62653 27.0272 7.8494ZM17.9542 3.14388C16.8462 3.58541 15.7165 4.58033 14.9722 6.53343L13.9311 9.26522L12.3805 6.77591C11.775 5.80383 10.2745 5.43113 8.72566 6.03173C8.00255 6.31213 7.45516 6.7547 7.16229 7.24182C6.89412 7.68787 6.78448 8.25256 7.0581 8.99421L8.02514 11.6153L5.29244 10.8367C5.02759 10.7612 4.59941 10.8128 4.0724 11.2812C3.5521 11.7437 3.1157 12.4793 2.9574 13.2804C2.80272 14.0632 2.927 14.8169 3.37937 15.4311C3.82057 16.0301 4.7085 16.6777 6.43995 17.0079H27.2634C28.2177 17.0079 28.9271 16.5865 29.4134 15.932C29.9229 15.2462 30.1775 14.3035 30.0875 13.3908C29.9987 12.4912 29.5904 11.7251 28.9006 11.2521C28.2192 10.7849 27.0458 10.4564 25.1321 10.8614L21.7937 11.5678L23.5972 8.72759C24.3899 7.47937 24.3724 6.37014 23.9781 5.47188C23.5611 4.52208 22.6637 3.68734 21.5138 3.21816C20.3728 2.7526 19.0903 2.6911 17.9542 3.14388Z" fill="#0080FF"/>
<path fill-rule="evenodd" clip-rule="evenodd" d="M17.9473 21.2598V36H15.0525V21.2598H17.9473Z" fill="#0080FF"/>
<path fill-rule="evenodd" clip-rule="evenodd" d="M19.3947 21.2598H22.0965V24.8514C22.0965 27.9257 23.186 30.9005 25.1716 33.2476L27.5 36H24.393L22.4444 33.6824C20.4747 31.3397 19.3947 28.3771 19.3947 25.3163V21.2598Z" fill="#0080FF"/>
<path fill-rule="evenodd" clip-rule="evenodd" d="M13.6051 21.2598H10.9034V24.8514C10.9034 27.9257 9.81384 30.9005 7.82826 33.2476L5.49978 36H8.60684L10.5554 33.6824C12.5252 31.3397 13.6051 28.3771 13.6051 25.3163V21.2598Z" fill="#0080FF"/>
</svg>
