<svg width="441" height="74" viewBox="0 0 441 74" fill="none" xmlns="http://www.w3.org/2000/svg">
<g clip-path="url(#clip0_562_22)">
<path fill-rule="evenodd" clip-rule="evenodd" d="M55.6925 16.571C58.5324 16.6671 60.9824 17.4532 62.9743 18.8525C66.0726 21.029 67.6165 24.3799 67.9358 27.6938C68.2523 30.9801 67.396 34.4479 65.4329 37.1549C63.4219 39.928 60.2387 41.8899 56.1791 41.8899H12.7238L12.4595 41.8417C7.65879 40.9671 4.19628 38.9575 2.12568 36.0774C0.0566578 33.1996 -0.332083 29.8537 0.237672 26.8996C0.799958 23.9842 2.3225 21.2609 4.38238 19.385C5.45458 18.4086 6.77774 17.5814 8.25254 17.149C8.2718 15.3779 8.75739 13.7194 9.61835 12.2523C11.0332 9.84123 13.3383 8.14136 15.784 7.16976C19.1753 5.82249 23.6749 5.64512 27.1703 7.74614C29.158 4.50948 31.7806 2.30582 34.7479 1.09427C38.7391 -0.535298 43.0259 -0.234799 46.6257 1.26997C50.2072 2.76711 53.3305 5.54981 54.8895 9.18848C55.8662 11.468 56.1851 13.9893 55.6925 16.571ZM36.9965 6.63707C34.7135 7.56919 32.3856 9.66957 30.8518 13.7928L28.7064 19.5599L25.5113 14.3047C24.2636 12.2525 21.1717 11.4657 17.9801 12.7337C16.4901 13.3256 15.3621 14.2599 14.7587 15.2883C14.2061 16.2299 13.9801 17.4221 14.544 18.9878L16.5367 24.5212L10.9056 22.8774C10.3599 22.7181 9.47757 22.827 8.39162 23.8159C7.31947 24.7923 6.42023 26.3451 6.09404 28.0364C5.77531 29.689 6.03139 31.2802 6.96354 32.5767C7.87269 33.8413 9.70237 35.2086 13.2702 35.9056H56.1791C58.1455 35.9056 59.6074 35.016 60.6094 33.6343C61.6594 32.1865 62.184 30.1963 61.9984 28.2694C61.8155 26.3702 60.9742 24.7529 59.5528 23.7545C58.1487 22.7681 55.7308 22.0746 51.7874 22.9295L44.9083 24.4209L48.6246 18.4249C50.2579 15.7898 50.2219 13.4481 49.4094 11.5517C48.5502 9.54661 46.701 7.78438 44.3315 6.79389C41.9803 5.81104 39.3376 5.68122 36.9965 6.63707Z" fill="url(#paint0_linear_562_22)"/>
<path fill-rule="evenodd" clip-rule="evenodd" d="M35.9821 44.8828V74.0009H32.0171V44.8828H35.9821Z" fill="url(#paint1_linear_562_22)"/>
<path fill-rule="evenodd" clip-rule="evenodd" d="M37.9648 44.8828H43.5321V55.8428C43.5321 58.8639 44.5843 61.7906 46.5079 64.1202L54.6668 74.0009H48.2643L40.9157 65.0465C39.0077 62.7215 37.9648 59.807 37.9648 56.7994V44.8828Z" fill="url(#paint2_linear_562_22)"/>
<path fill-rule="evenodd" clip-rule="evenodd" d="M30.0349 44.8828H24.4676V55.8428C24.4676 58.8639 23.4154 61.7906 21.4919 64.1202L13.333 74.0009H19.7354L27.0841 65.0465C28.9921 62.7215 30.0349 59.807 30.0349 56.7994V44.8828Z" fill="url(#paint3_linear_562_22)"/>
<path fill-rule="evenodd" clip-rule="evenodd" d="M55.6925 16.571C58.5324 16.6671 60.9824 17.4532 62.9743 18.8525C66.0726 21.029 67.6165 24.3799 67.9358 27.6938C68.2523 30.9801 67.396 34.4479 65.4329 37.1549C63.4219 39.928 60.2387 41.8899 56.1791 41.8899H12.7238L12.4595 41.8417C7.65879 40.9671 4.19628 38.9575 2.12568 36.0774C0.0566578 33.1996 -0.332083 29.8537 0.237672 26.8996C0.799958 23.9842 2.3225 21.2609 4.38238 19.385C5.45458 18.4086 6.77774 17.5814 8.25254 17.149C8.2718 15.3779 8.75739 13.7194 9.61835 12.2523C11.0332 9.84123 13.3383 8.14136 15.784 7.16976C19.1753 5.82249 23.6749 5.64512 27.1703 7.74614C29.158 4.50948 31.7806 2.30582 34.7479 1.09427C38.7391 -0.535298 43.0259 -0.234799 46.6257 1.26997C50.2072 2.76711 53.3305 5.54981 54.8895 9.18848C55.8662 11.468 56.1851 13.9893 55.6925 16.571ZM36.9965 6.63707C34.7135 7.56919 32.3856 9.66957 30.8518 13.7928L28.7064 19.5599L25.5113 14.3047C24.2636 12.2525 21.1717 11.4657 17.9801 12.7337C16.4901 13.3256 15.3621 14.2599 14.7587 15.2883C14.2061 16.2299 13.9801 17.4221 14.544 18.9878L16.5367 24.5212L10.9056 22.8774C10.3599 22.7181 9.47757 22.827 8.39162 23.8159C7.31947 24.7923 6.42023 26.3451 6.09404 28.0364C5.77531 29.689 6.03139 31.2802 6.96354 32.5767C7.87269 33.8413 9.70237 35.2086 13.2702 35.9056H56.1791C58.1455 35.9056 59.6074 35.016 60.6094 33.6343C61.6594 32.1865 62.184 30.1963 61.9984 28.2694C61.8155 26.3702 60.9742 24.7529 59.5528 23.7545C58.1487 22.7681 55.7308 22.0746 51.7874 22.9295L44.9083 24.4209L48.6246 18.4249C50.2579 15.7898 50.2219 13.4481 49.4094 11.5517C48.5502 9.54661 46.701 7.78438 44.3315 6.79389C41.9803 5.81104 39.3376 5.68122 36.9965 6.63707Z" fill="url(#paint4_linear_562_22)"/>
<path fill-rule="evenodd" clip-rule="evenodd" d="M35.9821 44.8828V74.0009H32.0171V44.8828H35.9821Z" fill="url(#paint5_linear_562_22)"/>
<path fill-rule="evenodd" clip-rule="evenodd" d="M37.9648 44.8828H43.5321V55.8428C43.5321 58.8639 44.5843 61.7906 46.5079 64.1202L54.6668 74.0009H48.2643L40.9157 65.0465C39.0077 62.7215 37.9648 59.807 37.9648 56.7994V44.8828Z" fill="url(#paint6_linear_562_22)"/>
<path fill-rule="evenodd" clip-rule="evenodd" d="M30.0349 44.8828H24.4676V55.8428C24.4676 58.8639 23.4154 61.7906 21.4919 64.1202L13.333 74.0009H19.7354L27.0841 65.0465C28.9921 62.7215 30.0349 59.807 30.0349 56.7994V44.8828Z" fill="url(#paint7_linear_562_22)"/>
<path d="M99.6442 20.7596C104.167 20.7596 107.751 21.8903 110.396 24.1516C113.084 26.4129 114.428 29.4636 114.428 33.3036C114.428 37.2716 113.084 40.3436 110.396 42.5196C107.751 44.6529 104.167 45.7196 99.6442 45.7196L99.0042 46.1036H89.2122V62.9996H82.4282V20.7596H99.6442ZM99.1322 40.4076C101.906 40.4076 103.954 39.8529 105.276 38.7436C106.642 37.5916 107.324 35.8423 107.324 33.4956C107.324 31.1916 106.642 29.4636 105.276 28.3116C103.954 27.1596 101.906 26.5836 99.1322 26.5836H89.2122V40.4076H99.1322ZM103.164 41.8156L116.924 62.9996H109.052L97.2762 44.5036L103.164 41.8156ZM127.674 25.6236C126.181 25.6236 125.029 25.2609 124.218 24.5356C123.45 23.7676 123.066 22.7009 123.066 21.3356C123.066 19.9703 123.45 18.9249 124.218 18.1996C125.029 17.4743 126.181 17.1116 127.674 17.1116C129.125 17.1116 130.234 17.4743 131.002 18.1996C131.813 18.9249 132.218 19.9703 132.218 21.3356C132.218 22.7009 131.813 23.7676 131.002 24.5356C130.234 25.2609 129.125 25.6236 127.674 25.6236ZM131.066 30.9996V62.9996H124.218V30.9996H131.066ZM141.781 62.9996V30.9996H147.861L148.181 36.3756C149.29 34.3276 150.762 32.8129 152.597 31.8316C154.474 30.8503 156.458 30.3596 158.549 30.3596C160.853 30.3596 162.965 30.8929 164.885 31.9596C166.847 32.9836 168.319 34.5409 169.301 36.6316C169.983 35.2236 170.922 34.0503 172.117 33.1116C173.311 32.1729 174.634 31.4903 176.085 31.0636C177.535 30.5943 178.965 30.3596 180.373 30.3596C182.421 30.3596 184.341 30.7863 186.133 31.6396C187.925 32.4929 189.375 33.7943 190.485 35.5436C191.594 37.2929 192.149 39.5329 192.149 42.2636V62.9996H185.301V43.3516C185.301 40.7489 184.682 38.8716 183.445 37.7196C182.207 36.5676 180.629 35.9916 178.709 35.9916C177.215 35.9916 175.829 36.3543 174.549 37.0796C173.311 37.8049 172.309 38.8929 171.541 40.3436C170.773 41.7516 170.389 43.5009 170.389 45.5916V62.9996H163.541V43.3516C163.541 40.7489 162.922 38.8716 161.685 37.7196C160.447 36.5676 158.869 35.9916 156.949 35.9916C155.669 35.9916 154.389 36.3329 153.109 37.0156C151.829 37.6983 150.762 38.7649 149.909 40.2156C149.055 41.6663 148.629 43.5863 148.629 45.9756V62.9996H141.781ZM203.049 18.4556C204.244 18.4556 205.225 18.7543 205.993 19.3516C206.804 19.9063 207.423 20.6956 207.849 21.7196C208.276 22.7009 208.489 23.8316 208.489 25.1116C208.489 26.6903 208.191 28.2263 207.593 29.7196C206.996 31.1703 206.121 32.5143 204.969 33.7516C203.86 34.9463 202.516 35.9276 200.937 36.6956L197.737 33.9436C198.889 33.5169 199.913 32.9623 200.809 32.2796C201.705 31.5969 202.452 30.8289 203.049 29.9756C203.689 29.1223 204.137 28.2476 204.393 27.3516L204.137 27.2236C203.924 27.3516 203.668 27.4583 203.369 27.5436C203.113 27.6289 202.729 27.6716 202.217 27.6716C201.62 27.6716 201.001 27.5223 200.361 27.2236C199.764 26.8823 199.252 26.3916 198.825 25.7516C198.399 25.1116 198.185 24.2796 198.185 23.2556C198.185 22.3169 198.399 21.4849 198.825 20.7596C199.295 20.0343 199.892 19.4796 200.617 19.0956C201.343 18.6689 202.153 18.4556 203.049 18.4556ZM252.061 51.7996C251.208 54.3596 249.928 56.5356 248.221 58.3276C246.515 60.0769 244.509 61.3996 242.205 62.2956C239.901 63.1916 237.363 63.6396 234.589 63.6396C230.536 63.6396 227.016 62.7649 224.029 61.0156C221.043 59.2663 218.739 56.7703 217.117 53.5276C215.496 50.2849 214.685 46.4023 214.685 41.8796C214.685 37.3569 215.496 33.4743 217.117 30.2316C218.739 26.9889 221.043 24.4929 224.029 22.7436C227.016 20.9943 230.515 20.1196 234.525 20.1196C237.299 20.1196 239.795 20.5036 242.013 21.2716C244.275 22.0396 246.195 23.1916 247.773 24.7276C249.352 26.2636 250.568 28.1836 251.421 30.4876L244.957 33.3676C244.104 30.8503 242.867 29.0156 241.245 27.8636C239.624 26.6689 237.512 26.0716 234.909 26.0716C232.307 26.0716 230.024 26.6903 228.061 27.9276C226.099 29.1649 224.563 30.9569 223.453 33.3036C222.387 35.6503 221.853 38.5089 221.853 41.8796C221.853 45.2076 222.365 48.0663 223.389 50.4556C224.413 52.8023 225.885 54.5943 227.805 55.8316C229.725 57.0689 232.029 57.6876 234.717 57.6876C237.32 57.6876 239.56 57.0263 241.437 55.7036C243.357 54.3383 244.723 52.3116 245.533 49.6236L252.061 51.7996ZM273.731 30.3596C276.846 30.3596 279.598 31.0209 281.987 32.3436C284.377 33.6663 286.233 35.5863 287.555 38.1036C288.921 40.5783 289.603 43.5436 289.603 46.9996C289.603 50.4556 288.921 53.4423 287.555 55.9596C286.233 58.4343 284.377 60.3329 281.987 61.6556C279.598 62.9783 276.846 63.6396 273.731 63.6396C270.617 63.6396 267.865 62.9783 265.475 61.6556C263.086 60.3329 261.209 58.4343 259.843 55.9596C258.478 53.4423 257.795 50.4556 257.795 46.9996C257.795 43.5436 258.478 40.5783 259.843 38.1036C261.209 35.5863 263.086 33.6663 265.475 32.3436C267.865 31.0209 270.617 30.3596 273.731 30.3596ZM273.731 35.7356C271.811 35.7356 270.169 36.1836 268.803 37.0796C267.481 37.9329 266.457 39.1916 265.731 40.8556C265.006 42.5196 264.643 44.5676 264.643 46.9996C264.643 49.3889 265.006 51.4369 265.731 53.1436C266.457 54.8076 267.481 56.0876 268.803 56.9836C270.169 57.8369 271.811 58.2636 273.731 58.2636C275.651 58.2636 277.273 57.8369 278.595 56.9836C279.918 56.0876 280.942 54.8076 281.667 53.1436C282.393 51.4369 282.755 49.3889 282.755 46.9996C282.755 44.5676 282.393 42.5196 281.667 40.8556C280.942 39.1916 279.918 37.9329 278.595 37.0796C277.273 36.1836 275.651 35.7356 273.731 35.7356ZM298.218 62.9996V30.9996H304.298L304.746 39.3196L303.85 38.4236C304.448 36.5889 305.301 35.0743 306.41 33.8796C307.562 32.6423 308.906 31.7463 310.442 31.1916C312.021 30.6369 313.685 30.3596 315.434 30.3596C317.696 30.3596 319.722 30.8076 321.514 31.7036C323.349 32.5569 324.8 33.8583 325.866 35.6076C326.933 37.3569 327.466 39.5756 327.466 42.2636V62.9996H320.618V44.3756C320.618 41.2183 319.957 39.0423 318.634 37.8476C317.354 36.6103 315.733 35.9916 313.77 35.9916C312.362 35.9916 310.997 36.3329 309.674 37.0156C308.352 37.6556 307.242 38.7009 306.346 40.1516C305.493 41.6023 305.066 43.5436 305.066 45.9756V62.9996H298.218ZM350.003 63.6396C346.803 63.6396 343.881 63.0209 341.235 61.7836C338.59 60.5463 336.499 58.7969 334.963 56.5356L339.699 52.4396C340.638 54.1889 341.982 55.5969 343.731 56.6636C345.523 57.6876 347.657 58.1996 350.131 58.1996C352.094 58.1996 353.651 57.8583 354.803 57.1756C355.955 56.4929 356.531 55.5329 356.531 54.2956C356.531 53.4849 356.254 52.7809 355.699 52.1836C355.187 51.5436 354.185 51.0529 352.691 50.7116L345.971 49.3036C342.558 48.6209 340.126 47.5329 338.675 46.0396C337.225 44.5036 336.499 42.5623 336.499 40.2156C336.499 38.4663 337.011 36.8449 338.035 35.3516C339.059 33.8583 340.553 32.6636 342.515 31.7676C344.521 30.8289 346.91 30.3596 349.683 30.3596C352.883 30.3596 355.614 30.9356 357.875 32.0876C360.137 33.1969 361.865 34.7969 363.059 36.8876L358.323 40.8556C357.513 39.1489 356.318 37.8903 354.739 37.0796C353.161 36.2263 351.518 35.7996 349.811 35.7996C348.446 35.7996 347.273 35.9703 346.291 36.3116C345.31 36.6529 344.563 37.1223 344.051 37.7196C343.539 38.3169 343.283 39.0209 343.283 39.8316C343.283 40.6849 343.603 41.4316 344.243 42.0716C344.883 42.7116 346.035 43.2023 347.699 43.5436L354.995 45.0796C358.067 45.6769 360.222 46.7009 361.459 48.1516C362.739 49.5596 363.379 51.2876 363.379 53.3356C363.379 55.3836 362.846 57.1969 361.779 58.7756C360.713 60.3116 359.177 61.5063 357.171 62.3596C355.166 63.2129 352.777 63.6396 350.003 63.6396ZM385.736 63.6396C382.536 63.6396 379.72 62.9783 377.288 61.6556C374.856 60.3329 372.957 58.4343 371.592 55.9596C370.269 53.4423 369.608 50.4556 369.608 46.9996C369.608 43.5436 370.269 40.5783 371.592 38.1036C372.957 35.5863 374.834 33.6663 377.224 32.3436C379.613 31.0209 382.322 30.3596 385.352 30.3596C388.466 30.3596 391.112 30.9996 393.288 32.2796C395.464 33.5596 397.128 35.3089 398.28 37.5276C399.432 39.7463 400.008 42.2636 400.008 45.0796C400.008 45.8476 399.986 46.5729 399.944 47.2556C399.901 47.9383 399.837 48.5356 399.752 49.0476H374.024V43.7996H396.744L393.352 44.8236C393.352 41.9223 392.626 39.7036 391.176 38.1676C389.725 36.5889 387.741 35.7996 385.224 35.7996C383.389 35.7996 381.789 36.2263 380.424 37.0796C379.058 37.9329 378.013 39.2129 377.288 40.9196C376.562 42.5836 376.2 44.6316 376.2 47.0636C376.2 49.4529 376.584 51.4796 377.352 53.1436C378.12 54.8076 379.208 56.0663 380.616 56.9196C382.024 57.7729 383.688 58.1996 385.608 58.1996C387.741 58.1996 389.469 57.7943 390.792 56.9836C392.114 56.1729 393.16 55.0423 393.928 53.5916L399.368 56.1516C398.6 57.6876 397.554 59.0316 396.232 60.1836C394.952 61.2929 393.416 62.1463 391.624 62.7436C389.832 63.3409 387.869 63.6396 385.736 63.6396ZM412.112 25.6236C410.618 25.6236 409.466 25.2609 408.656 24.5356C407.888 23.7676 407.504 22.7009 407.504 21.3356C407.504 19.9703 407.888 18.9249 408.656 18.1996C409.466 17.4743 410.618 17.1116 412.112 17.1116C413.562 17.1116 414.672 17.4743 415.44 18.1996C416.25 18.9249 416.656 19.9703 416.656 21.3356C416.656 22.7009 416.25 23.7676 415.44 24.5356C414.672 25.2609 413.562 25.6236 412.112 25.6236ZM415.504 30.9996V62.9996H408.656V30.9996H415.504ZM432.874 16.5996V54.0396C432.874 55.6183 433.152 56.7063 433.706 57.3036C434.261 57.9009 435.178 58.1996 436.458 58.1996C437.226 58.1996 437.866 58.1569 438.378 58.0716C438.933 57.9436 439.616 57.7303 440.426 57.4316L439.658 62.5516C438.933 62.8929 438.101 63.1489 437.162 63.3196C436.224 63.5329 435.285 63.6396 434.346 63.6396C431.488 63.6396 429.376 62.9143 428.01 61.4636C426.688 59.9703 426.026 57.6876 426.026 54.6156V16.5996H432.874Z" fill="#077CFF"/>
</g>
<defs>
<linearGradient id="paint0_linear_562_22" x1="34" y1="-1.81071e-07" x2="34" y2="71.5" gradientUnits="userSpaceOnUse">
<stop stop-color="#BCD8FF"/>
<stop offset="0.600962" stop-color="#439DFF"/>
<stop offset="1" stop-color="#1EC800"/>
</linearGradient>
<linearGradient id="paint1_linear_562_22" x1="33.9998" y1="0.000913567" x2="33.9998" y2="71.5009" gradientUnits="userSpaceOnUse">
<stop stop-color="#BCD8FF"/>
<stop offset="0.600962" stop-color="#439DFF"/>
<stop offset="1" stop-color="#1EC800"/>
</linearGradient>
<linearGradient id="paint2_linear_562_22" x1="34" y1="0.000913567" x2="34" y2="71.5009" gradientUnits="userSpaceOnUse">
<stop stop-color="#BCD8FF"/>
<stop offset="0.600962" stop-color="#439DFF"/>
<stop offset="1" stop-color="#1EC800"/>
</linearGradient>
<linearGradient id="paint3_linear_562_22" x1="34.0001" y1="0.000913567" x2="34.0001" y2="71.5009" gradientUnits="userSpaceOnUse">
<stop stop-color="#BCD8FF"/>
<stop offset="0.600962" stop-color="#439DFF"/>
<stop offset="1" stop-color="#1EC800"/>
</linearGradient>
<linearGradient id="paint4_linear_562_22" x1="34" y1="-1.81071e-07" x2="34" y2="71.5" gradientUnits="userSpaceOnUse">
<stop stop-color="#BCD8FF"/>
<stop offset="0.600962" stop-color="#0C80FF"/>
<stop offset="1" stop-color="#5DB138"/>
</linearGradient>
<linearGradient id="paint5_linear_562_22" x1="33.9998" y1="0.000913567" x2="33.9998" y2="71.5009" gradientUnits="userSpaceOnUse">
<stop stop-color="#BCD8FF"/>
<stop offset="0.600962" stop-color="#0C80FF"/>
<stop offset="1" stop-color="#5DB138"/>
</linearGradient>
<linearGradient id="paint6_linear_562_22" x1="34" y1="0.000913567" x2="34" y2="71.5009" gradientUnits="userSpaceOnUse">
<stop stop-color="#BCD8FF"/>
<stop offset="0.600962" stop-color="#0C80FF"/>
<stop offset="1" stop-color="#5DB138"/>
</linearGradient>
<linearGradient id="paint7_linear_562_22" x1="34.0001" y1="0.000913567" x2="34.0001" y2="71.5009" gradientUnits="userSpaceOnUse">
<stop stop-color="#BCD8FF"/>
<stop offset="0.600962" stop-color="#0C80FF"/>
<stop offset="1" stop-color="#5DB138"/>
</linearGradient>
<clipPath id="clip0_562_22">
<rect width="441" height="74" fill="white"/>
</clipPath>
</defs>
</svg>
