<svg width="441" height="74" viewBox="0 0 441 74" fill="none" xmlns="http://www.w3.org/2000/svg">
<g clip-path="url(#clip0_562_2)">
<mask id="mask0_562_2" style="mask-type:luminance" maskUnits="userSpaceOnUse" x="0" y="0" width="446" height="74">
<path d="M445.5 0H0.5V74H445.5V0Z" fill="white"/>
</mask>
<g mask="url(#mask0_562_2)">
<path fill-rule="evenodd" clip-rule="evenodd" d="M56.1925 16.571C59.0324 16.6671 61.4824 17.4532 63.4743 18.8525C66.5726 21.029 68.1165 24.3799 68.4358 27.6938C68.7523 30.9801 67.896 34.4479 65.9329 37.1549C63.9219 39.928 60.7387 41.8899 56.6791 41.8899H13.2238L12.9595 41.8417C8.15879 40.9671 4.69628 38.9575 2.62568 36.0774C0.556658 33.1996 0.167917 29.8537 0.737672 26.8996C1.29996 23.9842 2.8225 21.2609 4.88238 19.385C5.95458 18.4086 7.27774 17.5814 8.75254 17.149C8.7718 15.3779 9.25739 13.7194 10.1184 12.2523C11.5332 9.84123 13.8383 8.14136 16.284 7.16976C19.6753 5.82249 24.1749 5.64512 27.6703 7.74614C29.658 4.50948 32.2806 2.30582 35.2479 1.09427C39.2391 -0.535298 43.5259 -0.234799 47.1257 1.26997C50.7072 2.76711 53.8305 5.54981 55.3895 9.18848C56.3662 11.468 56.6851 13.9893 56.1925 16.571ZM37.4965 6.63707C35.2135 7.56919 32.8856 9.66957 31.3518 13.7928L29.2064 19.5599L26.0113 14.3047C24.7636 12.2525 21.6717 11.4657 18.4801 12.7337C16.9901 13.3256 15.8621 14.2599 15.2587 15.2883C14.7061 16.2299 14.4801 17.4221 15.044 18.9878L17.0367 24.5212L11.4056 22.8774C10.8599 22.7181 9.97757 22.827 8.89162 23.8159C7.81947 24.7923 6.92023 26.3451 6.59404 28.0364C6.27531 29.689 6.53139 31.2802 7.46354 32.5767C8.37269 33.8413 10.2024 35.2086 13.7702 35.9056H56.6791C58.6455 35.9056 60.1074 35.016 61.1094 33.6343C62.1594 32.1865 62.684 30.1963 62.4984 28.2694C62.3155 26.3702 61.4742 24.7529 60.0528 23.7545C58.6487 22.7681 56.2308 22.0746 52.2874 22.9295L45.4083 24.4209L49.1246 18.4249C50.7579 15.7898 50.7219 13.4481 49.9094 11.5517C49.0502 9.54661 47.201 7.78438 44.8315 6.79389C42.4803 5.81104 39.8376 5.68122 37.4965 6.63707Z" fill="#F6FAFF"/>
<path fill-rule="evenodd" clip-rule="evenodd" d="M36.4821 44.8828V74.0009H32.5171V44.8828H36.4821Z" fill="#F6FAFF"/>
<path fill-rule="evenodd" clip-rule="evenodd" d="M38.4648 44.8828H44.0321V55.8428C44.0321 58.8639 45.0843 61.7906 47.0079 64.1202L55.1668 74.0009H48.7643L41.4157 65.0465C39.5077 62.7215 38.4648 59.807 38.4648 56.7994V44.8828Z" fill="#F6FAFF"/>
<path fill-rule="evenodd" clip-rule="evenodd" d="M30.5349 44.8828H24.9676V55.8428C24.9676 58.8639 23.9154 61.7906 21.9919 64.1202L13.833 74.0009H20.2354L27.5841 65.0465C29.4921 62.7215 30.5349 59.807 30.5349 56.7994V44.8828Z" fill="#F6FAFF"/>
<path d="M100.144 20.7596C104.667 20.7596 108.251 21.8903 110.896 24.1516C113.584 26.4129 114.928 29.4636 114.928 33.3036C114.928 37.2716 113.584 40.3436 110.896 42.5196C108.251 44.6529 104.667 45.7196 100.144 45.7196L99.5042 46.1036H89.7122V62.9996H82.9282V20.7596H100.144ZM99.6322 40.4076C102.406 40.4076 104.454 39.8529 105.776 38.7436C107.142 37.5916 107.824 35.8423 107.824 33.4956C107.824 31.1916 107.142 29.4636 105.776 28.3116C104.454 27.1596 102.406 26.5836 99.6322 26.5836H89.7122V40.4076H99.6322ZM103.664 41.8156L117.424 62.9996H109.552L97.7762 44.5036L103.664 41.8156ZM128.174 25.6236C126.681 25.6236 125.529 25.2609 124.718 24.5356C123.95 23.7676 123.566 22.7009 123.566 21.3356C123.566 19.9703 123.95 18.9249 124.718 18.1996C125.529 17.4743 126.681 17.1116 128.174 17.1116C129.625 17.1116 130.734 17.4743 131.502 18.1996C132.313 18.9249 132.718 19.9703 132.718 21.3356C132.718 22.7009 132.313 23.7676 131.502 24.5356C130.734 25.2609 129.625 25.6236 128.174 25.6236ZM131.566 30.9996V62.9996H124.718V30.9996H131.566ZM142.281 62.9996V30.9996H148.361L148.681 36.3756C149.79 34.3276 151.262 32.8129 153.097 31.8316C154.974 30.8503 156.958 30.3596 159.049 30.3596C161.353 30.3596 163.465 30.8929 165.385 31.9596C167.347 32.9836 168.819 34.5409 169.801 36.6316C170.483 35.2236 171.422 34.0503 172.617 33.1116C173.811 32.1729 175.134 31.4903 176.585 31.0636C178.035 30.5943 179.465 30.3596 180.873 30.3596C182.921 30.3596 184.841 30.7863 186.633 31.6396C188.425 32.4929 189.875 33.7943 190.985 35.5436C192.094 37.2929 192.649 39.5329 192.649 42.2636V62.9996H185.801V43.3516C185.801 40.7489 185.182 38.8716 183.945 37.7196C182.707 36.5676 181.129 35.9916 179.209 35.9916C177.715 35.9916 176.329 36.3543 175.049 37.0796C173.811 37.8049 172.809 38.8929 172.041 40.3436C171.273 41.7516 170.889 43.5009 170.889 45.5916V62.9996H164.041V43.3516C164.041 40.7489 163.422 38.8716 162.185 37.7196C160.947 36.5676 159.369 35.9916 157.449 35.9916C156.169 35.9916 154.889 36.3329 153.609 37.0156C152.329 37.6983 151.262 38.7649 150.409 40.2156C149.555 41.6663 149.129 43.5863 149.129 45.9756V62.9996H142.281ZM203.549 18.4556C204.744 18.4556 205.725 18.7543 206.493 19.3516C207.304 19.9063 207.923 20.6956 208.349 21.7196C208.776 22.7009 208.989 23.8316 208.989 25.1116C208.989 26.6903 208.691 28.2263 208.093 29.7196C207.496 31.1703 206.621 32.5143 205.469 33.7516C204.36 34.9463 203.016 35.9276 201.437 36.6956L198.237 33.9436C199.389 33.5169 200.413 32.9623 201.309 32.2796C202.205 31.5969 202.952 30.8289 203.549 29.9756C204.189 29.1223 204.637 28.2476 204.893 27.3516L204.637 27.2236C204.424 27.3516 204.168 27.4583 203.869 27.5436C203.613 27.6289 203.229 27.6716 202.717 27.6716C202.12 27.6716 201.501 27.5223 200.861 27.2236C200.264 26.8823 199.752 26.3916 199.325 25.7516C198.899 25.1116 198.685 24.2796 198.685 23.2556C198.685 22.3169 198.899 21.4849 199.325 20.7596C199.795 20.0343 200.392 19.4796 201.117 19.0956C201.843 18.6689 202.653 18.4556 203.549 18.4556ZM252.561 51.7996C251.708 54.3596 250.428 56.5356 248.721 58.3276C247.015 60.0769 245.009 61.3996 242.705 62.2956C240.401 63.1916 237.863 63.6396 235.089 63.6396C231.036 63.6396 227.516 62.7649 224.529 61.0156C221.543 59.2663 219.239 56.7703 217.617 53.5276C215.996 50.2849 215.185 46.4023 215.185 41.8796C215.185 37.3569 215.996 33.4743 217.617 30.2316C219.239 26.9889 221.543 24.4929 224.529 22.7436C227.516 20.9943 231.015 20.1196 235.025 20.1196C237.799 20.1196 240.295 20.5036 242.513 21.2716C244.775 22.0396 246.695 23.1916 248.273 24.7276C249.852 26.2636 251.068 28.1836 251.921 30.4876L245.457 33.3676C244.604 30.8503 243.367 29.0156 241.745 27.8636C240.124 26.6689 238.012 26.0716 235.409 26.0716C232.807 26.0716 230.524 26.6903 228.561 27.9276C226.599 29.1649 225.063 30.9569 223.953 33.3036C222.887 35.6503 222.353 38.5089 222.353 41.8796C222.353 45.2076 222.865 48.0663 223.889 50.4556C224.913 52.8023 226.385 54.5943 228.305 55.8316C230.225 57.0689 232.529 57.6876 235.217 57.6876C237.82 57.6876 240.06 57.0263 241.937 55.7036C243.857 54.3383 245.223 52.3116 246.033 49.6236L252.561 51.7996ZM274.231 30.3596C277.346 30.3596 280.098 31.0209 282.487 32.3436C284.877 33.6663 286.733 35.5863 288.055 38.1036C289.421 40.5783 290.103 43.5436 290.103 46.9996C290.103 50.4556 289.421 53.4423 288.055 55.9596C286.733 58.4343 284.877 60.3329 282.487 61.6556C280.098 62.9783 277.346 63.6396 274.231 63.6396C271.117 63.6396 268.365 62.9783 265.975 61.6556C263.586 60.3329 261.709 58.4343 260.343 55.9596C258.978 53.4423 258.295 50.4556 258.295 46.9996C258.295 43.5436 258.978 40.5783 260.343 38.1036C261.709 35.5863 263.586 33.6663 265.975 32.3436C268.365 31.0209 271.117 30.3596 274.231 30.3596ZM274.231 35.7356C272.311 35.7356 270.669 36.1836 269.303 37.0796C267.981 37.9329 266.957 39.1916 266.231 40.8556C265.506 42.5196 265.143 44.5676 265.143 46.9996C265.143 49.3889 265.506 51.4369 266.231 53.1436C266.957 54.8076 267.981 56.0876 269.303 56.9836C270.669 57.8369 272.311 58.2636 274.231 58.2636C276.151 58.2636 277.773 57.8369 279.095 56.9836C280.418 56.0876 281.442 54.8076 282.167 53.1436C282.893 51.4369 283.255 49.3889 283.255 46.9996C283.255 44.5676 282.893 42.5196 282.167 40.8556C281.442 39.1916 280.418 37.9329 279.095 37.0796C277.773 36.1836 276.151 35.7356 274.231 35.7356ZM298.718 62.9996V30.9996H304.798L305.246 39.3196L304.35 38.4236C304.948 36.5889 305.801 35.0743 306.91 33.8796C308.062 32.6423 309.406 31.7463 310.942 31.1916C312.521 30.6369 314.185 30.3596 315.934 30.3596C318.196 30.3596 320.222 30.8076 322.014 31.7036C323.849 32.5569 325.3 33.8583 326.366 35.6076C327.433 37.3569 327.966 39.5756 327.966 42.2636V62.9996H321.118V44.3756C321.118 41.2183 320.457 39.0423 319.134 37.8476C317.854 36.6103 316.233 35.9916 314.27 35.9916C312.862 35.9916 311.497 36.3329 310.174 37.0156C308.852 37.6556 307.742 38.7009 306.846 40.1516C305.993 41.6023 305.566 43.5436 305.566 45.9756V62.9996H298.718ZM350.503 63.6396C347.303 63.6396 344.381 63.0209 341.735 61.7836C339.09 60.5463 336.999 58.7969 335.463 56.5356L340.199 52.4396C341.138 54.1889 342.482 55.5969 344.231 56.6636C346.023 57.6876 348.157 58.1996 350.631 58.1996C352.594 58.1996 354.151 57.8583 355.303 57.1756C356.455 56.4929 357.031 55.5329 357.031 54.2956C357.031 53.4849 356.754 52.7809 356.199 52.1836C355.687 51.5436 354.685 51.0529 353.191 50.7116L346.471 49.3036C343.058 48.6209 340.626 47.5329 339.175 46.0396C337.725 44.5036 336.999 42.5623 336.999 40.2156C336.999 38.4663 337.511 36.8449 338.535 35.3516C339.559 33.8583 341.053 32.6636 343.015 31.7676C345.021 30.8289 347.41 30.3596 350.183 30.3596C353.383 30.3596 356.114 30.9356 358.375 32.0876C360.637 33.1969 362.365 34.7969 363.559 36.8876L358.823 40.8556C358.013 39.1489 356.818 37.8903 355.239 37.0796C353.661 36.2263 352.018 35.7996 350.311 35.7996C348.946 35.7996 347.773 35.9703 346.791 36.3116C345.81 36.6529 345.063 37.1223 344.551 37.7196C344.039 38.3169 343.783 39.0209 343.783 39.8316C343.783 40.6849 344.103 41.4316 344.743 42.0716C345.383 42.7116 346.535 43.2023 348.199 43.5436L355.495 45.0796C358.567 45.6769 360.722 46.7009 361.959 48.1516C363.239 49.5596 363.879 51.2876 363.879 53.3356C363.879 55.3836 363.346 57.1969 362.279 58.7756C361.213 60.3116 359.677 61.5063 357.671 62.3596C355.666 63.2129 353.277 63.6396 350.503 63.6396ZM386.236 63.6396C383.036 63.6396 380.22 62.9783 377.788 61.6556C375.356 60.3329 373.457 58.4343 372.092 55.9596C370.769 53.4423 370.108 50.4556 370.108 46.9996C370.108 43.5436 370.769 40.5783 372.092 38.1036C373.457 35.5863 375.334 33.6663 377.724 32.3436C380.113 31.0209 382.822 30.3596 385.852 30.3596C388.966 30.3596 391.612 30.9996 393.788 32.2796C395.964 33.5596 397.628 35.3089 398.78 37.5276C399.932 39.7463 400.508 42.2636 400.508 45.0796C400.508 45.8476 400.486 46.5729 400.444 47.2556C400.401 47.9383 400.337 48.5356 400.252 49.0476H374.524V43.7996H397.244L393.852 44.8236C393.852 41.9223 393.126 39.7036 391.676 38.1676C390.225 36.5889 388.241 35.7996 385.724 35.7996C383.889 35.7996 382.289 36.2263 380.924 37.0796C379.558 37.9329 378.513 39.2129 377.788 40.9196C377.062 42.5836 376.7 44.6316 376.7 47.0636C376.7 49.4529 377.084 51.4796 377.852 53.1436C378.62 54.8076 379.708 56.0663 381.116 56.9196C382.524 57.7729 384.188 58.1996 386.108 58.1996C388.241 58.1996 389.969 57.7943 391.292 56.9836C392.614 56.1729 393.66 55.0423 394.428 53.5916L399.868 56.1516C399.1 57.6876 398.054 59.0316 396.732 60.1836C395.452 61.2929 393.916 62.1463 392.124 62.7436C390.332 63.3409 388.369 63.6396 386.236 63.6396ZM412.612 25.6236C411.118 25.6236 409.966 25.2609 409.156 24.5356C408.388 23.7676 408.004 22.7009 408.004 21.3356C408.004 19.9703 408.388 18.9249 409.156 18.1996C409.966 17.4743 411.118 17.1116 412.612 17.1116C414.062 17.1116 415.172 17.4743 415.94 18.1996C416.75 18.9249 417.156 19.9703 417.156 21.3356C417.156 22.7009 416.75 23.7676 415.94 24.5356C415.172 25.2609 414.062 25.6236 412.612 25.6236ZM416.004 30.9996V62.9996H409.156V30.9996H416.004ZM433.374 16.5996V54.0396C433.374 55.6183 433.652 56.7063 434.206 57.3036C434.761 57.9009 435.678 58.1996 436.958 58.1996C437.726 58.1996 438.366 58.1569 438.878 58.0716C439.433 57.9436 440.116 57.7303 440.926 57.4316L440.158 62.5516C439.433 62.8929 438.601 63.1489 437.662 63.3196C436.724 63.5329 435.785 63.6396 434.846 63.6396C431.988 63.6396 429.876 62.9143 428.51 61.4636C427.188 59.9703 426.526 57.6876 426.526 54.6156V16.5996H433.374Z" fill="#F6FAFF"/>
</g>
</g>
<defs>
<clipPath id="clip0_562_2">
<rect width="441" height="74" fill="white"/>
</clipPath>
</defs>
</svg>
