<svg width="463" height="276" viewBox="0 0 463 276" fill="none" xmlns="http://www.w3.org/2000/svg">
<g clip-path="url(#clip0_575_2)">
<path d="M174.825 14.336H183.177V17H171.513V1.16002H174.825V14.336ZM190.948 17.24C189.684 17.24 188.58 16.992 187.636 16.496C186.708 16 185.988 15.288 185.476 14.36C184.964 13.432 184.708 12.312 184.708 11C184.708 9.68802 184.964 8.56801 185.476 7.64001C185.988 6.71201 186.7 6.00001 187.612 5.50401C188.54 5.00801 189.596 4.76002 190.78 4.76002C191.996 4.76002 193.028 5.00801 193.876 5.50401C194.724 5.98401 195.372 6.64802 195.82 7.49602C196.268 8.32802 196.492 9.28001 196.492 10.352C196.492 10.672 196.484 10.976 196.468 11.264C196.452 11.552 196.428 11.808 196.396 12.032H186.82V9.75201H194.956L193.372 10.328C193.372 9.32002 193.14 8.54402 192.676 8.00002C192.228 7.45602 191.588 7.18401 190.756 7.18401C190.148 7.18401 189.62 7.32801 189.172 7.61601C188.74 7.90401 188.412 8.33602 188.188 8.91202C187.964 9.47202 187.852 10.184 187.852 11.048C187.852 11.896 187.972 12.6 188.212 13.16C188.468 13.704 188.82 14.112 189.268 14.384C189.732 14.656 190.284 14.792 190.924 14.792C191.628 14.792 192.196 14.656 192.628 14.384C193.06 14.112 193.396 13.736 193.636 13.256L196.252 14.264C195.996 14.888 195.604 15.424 195.076 15.872C194.564 16.32 193.948 16.664 193.228 16.904C192.524 17.128 191.764 17.24 190.948 17.24ZM213.671 17.24C212.935 17.24 212.263 17.088 211.655 16.784C211.063 16.464 210.567 16.032 210.167 15.488C209.783 14.928 209.519 14.304 209.375 13.616L209.711 13.184L209.519 17H206.615V-0.255981H209.903V8.38402L209.591 7.88001C209.847 6.98401 210.335 6.24002 211.055 5.64802C211.775 5.05602 212.679 4.76002 213.767 4.76002C214.711 4.76002 215.567 5.00801 216.335 5.50401C217.103 6.00001 217.703 6.71201 218.135 7.64001C218.583 8.56801 218.807 9.69602 218.807 11.024C218.807 12.32 218.583 13.432 218.135 14.36C217.703 15.288 217.095 16 216.311 16.496C215.543 16.992 214.663 17.24 213.671 17.24ZM212.687 14.72C213.567 14.72 214.255 14.408 214.751 13.784C215.263 13.144 215.519 12.216 215.519 11C215.519 9.78402 215.271 8.86401 214.775 8.24001C214.279 7.60001 213.591 7.28001 212.711 7.28001C212.135 7.28001 211.639 7.43202 211.223 7.73602C210.807 8.04002 210.479 8.47201 210.239 9.03201C210.015 9.59201 209.903 10.256 209.903 11.024C209.903 11.808 210.015 12.48 210.239 13.04C210.479 13.584 210.807 14 211.223 14.288C211.655 14.576 212.143 14.72 212.687 14.72ZM225.838 17.24C225.038 17.24 224.318 17.096 223.678 16.808C223.038 16.52 222.526 16.064 222.142 15.44C221.774 14.8 221.59 13.976 221.59 12.968V5.00002H224.878V12.176C224.878 13.104 225.07 13.752 225.454 14.12C225.838 14.472 226.39 14.648 227.11 14.648C227.446 14.648 227.774 14.592 228.094 14.48C228.414 14.352 228.694 14.16 228.934 13.904C229.19 13.648 229.39 13.32 229.534 12.92C229.678 12.504 229.75 12.016 229.75 11.456V5.00002H233.038V17H230.11L229.99 14.912C229.59 15.712 229.038 16.304 228.334 16.688C227.646 17.056 226.814 17.24 225.838 17.24ZM241.298 17.24C240.082 17.24 238.97 17.024 237.962 16.592C236.97 16.16 236.162 15.552 235.538 14.768L237.434 12.848C237.818 13.424 238.33 13.896 238.97 14.264C239.61 14.632 240.37 14.816 241.25 14.816C241.874 14.816 242.37 14.728 242.738 14.552C243.122 14.36 243.314 14.064 243.314 13.664C243.314 13.408 243.226 13.192 243.05 13.016C242.874 12.824 242.522 12.672 241.994 12.56L239.882 12.128C238.49 11.84 237.498 11.408 236.906 10.832C236.33 10.24 236.042 9.48002 236.042 8.55202C236.042 7.89602 236.234 7.28002 236.618 6.70402C237.018 6.12802 237.61 5.66401 238.394 5.31201C239.178 4.94401 240.154 4.76002 241.322 4.76002C242.522 4.76002 243.562 4.95201 244.442 5.33601C245.338 5.70401 246.042 6.25601 246.554 6.99201L244.586 8.91202C244.234 8.35202 243.77 7.92801 243.194 7.64001C242.634 7.33601 242.042 7.18401 241.418 7.18401C240.97 7.18401 240.586 7.23202 240.266 7.32802C239.946 7.42402 239.706 7.56002 239.546 7.73602C239.386 7.89602 239.306 8.10402 239.306 8.36002C239.306 8.61602 239.418 8.84001 239.642 9.03201C239.866 9.20801 240.274 9.36001 240.866 9.48801L243.314 9.99201C244.498 10.232 245.346 10.64 245.858 11.216C246.37 11.776 246.626 12.456 246.626 13.256C246.626 14.024 246.418 14.712 246.002 15.32C245.602 15.912 245.002 16.384 244.202 16.736C243.418 17.072 242.45 17.24 241.298 17.24ZM250.904 3.27202C250.216 3.27202 249.704 3.12801 249.368 2.84001C249.032 2.53601 248.864 2.09601 248.864 1.52001C248.864 0.928012 249.032 0.488012 249.368 0.200012C249.704 -0.103988 250.216 -0.255981 250.904 -0.255981C251.592 -0.255981 252.104 -0.103988 252.44 0.200012C252.776 0.488012 252.944 0.928012 252.944 1.52001C252.944 2.09601 252.776 2.53601 252.44 2.84001C252.104 3.12801 251.592 3.27202 250.904 3.27202ZM252.536 5.00002V17H249.248V5.00002H252.536ZM256.021 17V5.00002H258.973L259.165 8.60001L258.757 8.21602C258.949 7.43202 259.253 6.78402 259.669 6.27202C260.085 5.76002 260.589 5.38401 261.181 5.14401C261.789 4.88801 262.453 4.76002 263.173 4.76002C264.005 4.76002 264.741 4.92001 265.381 5.24001C266.037 5.56001 266.549 6.04802 266.917 6.70402C267.301 7.34402 267.493 8.15201 267.493 9.12801V17H264.205V10.064C264.205 9.04002 264.005 8.33602 263.605 7.95202C263.205 7.55202 262.685 7.35201 262.045 7.35201C261.597 7.35201 261.157 7.46402 260.725 7.68802C260.309 7.89602 259.965 8.24002 259.693 8.72002C259.437 9.20002 259.309 9.84001 259.309 10.64V17H256.021ZM276.448 17.24C275.184 17.24 274.08 16.992 273.136 16.496C272.208 16 271.488 15.288 270.976 14.36C270.464 13.432 270.208 12.312 270.208 11C270.208 9.68802 270.464 8.56801 270.976 7.64001C271.488 6.71201 272.2 6.00001 273.112 5.50401C274.04 5.00801 275.096 4.76002 276.28 4.76002C277.496 4.76002 278.528 5.00801 279.376 5.50401C280.224 5.98401 280.872 6.64802 281.32 7.49602C281.768 8.32802 281.992 9.28001 281.992 10.352C281.992 10.672 281.984 10.976 281.968 11.264C281.952 11.552 281.928 11.808 281.896 12.032H272.32V9.75201H280.456L278.872 10.328C278.872 9.32002 278.64 8.54402 278.176 8.00002C277.728 7.45602 277.088 7.18401 276.256 7.18401C275.648 7.18401 275.12 7.32801 274.672 7.61601C274.24 7.90401 273.912 8.33602 273.688 8.91202C273.464 9.47202 273.352 10.184 273.352 11.048C273.352 11.896 273.472 12.6 273.712 13.16C273.968 13.704 274.32 14.112 274.768 14.384C275.232 14.656 275.784 14.792 276.424 14.792C277.128 14.792 277.696 14.656 278.128 14.384C278.56 14.112 278.896 13.736 279.136 13.256L281.752 14.264C281.496 14.888 281.104 15.424 280.576 15.872C280.064 16.32 279.448 16.664 278.728 16.904C278.024 17.128 277.264 17.24 276.448 17.24ZM289.579 17.24C288.363 17.24 287.251 17.024 286.243 16.592C285.251 16.16 284.443 15.552 283.819 14.768L285.715 12.848C286.099 13.424 286.611 13.896 287.251 14.264C287.891 14.632 288.651 14.816 289.531 14.816C290.155 14.816 290.651 14.728 291.019 14.552C291.403 14.36 291.595 14.064 291.595 13.664C291.595 13.408 291.507 13.192 291.331 13.016C291.155 12.824 290.803 12.672 290.275 12.56L288.163 12.128C286.771 11.84 285.779 11.408 285.187 10.832C284.611 10.24 284.323 9.48002 284.323 8.55202C284.323 7.89602 284.515 7.28002 284.899 6.70402C285.299 6.12802 285.891 5.66401 286.675 5.31201C287.459 4.94401 288.435 4.76002 289.603 4.76002C290.803 4.76002 291.843 4.95201 292.723 5.33601C293.619 5.70401 294.323 6.25601 294.835 6.99201L292.867 8.91202C292.515 8.35202 292.051 7.92801 291.475 7.64001C290.915 7.33601 290.323 7.18401 289.699 7.18401C289.251 7.18401 288.867 7.23202 288.547 7.32802C288.227 7.42402 287.987 7.56002 287.827 7.73602C287.667 7.89602 287.587 8.10402 287.587 8.36002C287.587 8.61602 287.699 8.84001 287.923 9.03201C288.147 9.20801 288.555 9.36001 289.147 9.48801L291.595 9.99201C292.779 10.232 293.627 10.64 294.139 11.216C294.651 11.776 294.907 12.456 294.907 13.256C294.907 14.024 294.699 14.712 294.283 15.32C293.883 15.912 293.283 16.384 292.483 16.736C291.699 17.072 290.731 17.24 289.579 17.24ZM302.329 17.24C301.113 17.24 300.001 17.024 298.993 16.592C298.001 16.16 297.193 15.552 296.569 14.768L298.465 12.848C298.849 13.424 299.361 13.896 300.001 14.264C300.641 14.632 301.401 14.816 302.281 14.816C302.905 14.816 303.401 14.728 303.769 14.552C304.153 14.36 304.345 14.064 304.345 13.664C304.345 13.408 304.257 13.192 304.081 13.016C303.905 12.824 303.553 12.672 303.025 12.56L300.913 12.128C299.521 11.84 298.529 11.408 297.937 10.832C297.361 10.24 297.073 9.48002 297.073 8.55202C297.073 7.89602 297.265 7.28002 297.649 6.70402C298.049 6.12802 298.641 5.66401 299.425 5.31201C300.209 4.94401 301.185 4.76002 302.353 4.76002C303.553 4.76002 304.593 4.95201 305.473 5.33601C306.369 5.70401 307.073 6.25601 307.585 6.99201L305.617 8.91202C305.265 8.35202 304.801 7.92801 304.225 7.64001C303.665 7.33601 303.073 7.18401 302.449 7.18401C302.001 7.18401 301.617 7.23202 301.297 7.32802C300.977 7.42402 300.737 7.56002 300.577 7.73602C300.417 7.89602 300.337 8.10402 300.337 8.36002C300.337 8.61602 300.449 8.84001 300.673 9.03201C300.897 9.20801 301.305 9.36001 301.897 9.48801L304.345 9.99201C305.529 10.232 306.377 10.64 306.889 11.216C307.401 11.776 307.657 12.456 307.657 13.256C307.657 14.024 307.449 14.712 307.033 15.32C306.633 15.912 306.033 16.384 305.233 16.736C304.449 17.072 303.481 17.24 302.329 17.24Z" fill="url(#paint0_linear_575_2)"/>
<path d="M52.501 189.336H60.853V192H49.189V176.16H52.501V189.336ZM70.1071 184.344C70.1071 183.656 69.9071 183.12 69.5071 182.736C69.1231 182.352 68.6111 182.16 67.9711 182.16C67.3791 182.16 66.8591 182.312 66.4111 182.616C65.9631 182.92 65.6351 183.424 65.4271 184.128L62.6191 183.264C62.8911 182.208 63.4831 181.36 64.3951 180.72C65.3231 180.08 66.5631 179.76 68.1151 179.76C69.1711 179.76 70.0911 179.928 70.8751 180.264C71.6591 180.584 72.2671 181.072 72.6991 181.728C73.1471 182.384 73.3711 183.208 73.3711 184.2V189.072C73.3711 189.68 73.6591 189.984 74.2351 189.984C74.5071 189.984 74.7631 189.944 75.0031 189.864L74.8111 191.904C74.3951 192.112 73.8751 192.216 73.2511 192.216C72.6911 192.216 72.1871 192.12 71.7391 191.928C71.2911 191.736 70.9391 191.448 70.6831 191.064C70.4271 190.664 70.2991 190.168 70.2991 189.576V189.48L70.8751 189.384C70.7791 189.992 70.5151 190.512 70.0831 190.944C69.6511 191.36 69.1231 191.68 68.4991 191.904C67.8911 192.128 67.2591 192.24 66.6031 192.24C65.7871 192.24 65.0831 192.12 64.4911 191.88C63.8991 191.624 63.4431 191.256 63.1231 190.776C62.8031 190.296 62.6431 189.704 62.6431 189C62.6431 188.104 62.9311 187.376 63.5071 186.816C64.0831 186.24 64.9071 185.848 65.9791 185.64L70.4911 184.728L70.4671 186.768L67.5871 187.344C67.0431 187.456 66.6271 187.608 66.3391 187.8C66.0671 187.976 65.9311 188.272 65.9311 188.688C65.9311 189.088 66.0751 189.392 66.3631 189.6C66.6671 189.808 67.0271 189.912 67.4431 189.912C67.7791 189.912 68.1071 189.872 68.4271 189.792C68.7471 189.712 69.0351 189.584 69.2911 189.408C69.5471 189.232 69.7471 188.992 69.8911 188.688C70.0351 188.384 70.1071 188.016 70.1071 187.584V184.344ZM88.5687 192.24C87.5767 192.24 86.6887 191.992 85.9047 191.496C85.1367 191 84.5287 190.288 84.0807 189.36C83.6487 188.432 83.4327 187.32 83.4327 186.024C83.4327 184.696 83.6647 183.568 84.1287 182.64C84.5927 181.696 85.2167 180.984 86.0007 180.504C86.8007 180.008 87.6967 179.76 88.6887 179.76C89.7447 179.76 90.6167 180.064 91.3047 180.672C91.9927 181.28 92.4407 182.064 92.6487 183.024L92.3367 183.408V174.744H95.6247V192H92.6727L92.4567 188.352L92.8647 188.544C92.7527 189.296 92.4967 189.952 92.0967 190.512C91.6967 191.056 91.1927 191.48 90.5847 191.784C89.9767 192.088 89.3047 192.24 88.5687 192.24ZM89.5287 189.72C90.1047 189.72 90.6007 189.576 91.0167 189.288C91.4327 188.984 91.7527 188.544 91.9767 187.968C92.2167 187.392 92.3367 186.704 92.3367 185.904C92.3367 185.136 92.2247 184.488 92.0007 183.96C91.7767 183.416 91.4567 183 91.0407 182.712C90.6247 182.424 90.1367 182.28 89.5767 182.28C88.6807 182.28 87.9767 182.6 87.4647 183.24C86.9687 183.864 86.7207 184.784 86.7207 186C86.7207 187.216 86.9687 188.144 87.4647 188.784C87.9607 189.408 88.6487 189.72 89.5287 189.72ZM105.92 184.344C105.92 183.656 105.72 183.12 105.32 182.736C104.936 182.352 104.424 182.16 103.784 182.16C103.192 182.16 102.672 182.312 102.224 182.616C101.776 182.92 101.448 183.424 101.24 184.128L98.4316 183.264C98.7036 182.208 99.2956 181.36 100.208 180.72C101.136 180.08 102.376 179.76 103.928 179.76C104.984 179.76 105.904 179.928 106.688 180.264C107.472 180.584 108.08 181.072 108.512 181.728C108.96 182.384 109.184 183.208 109.184 184.2V189.072C109.184 189.68 109.472 189.984 110.048 189.984C110.32 189.984 110.576 189.944 110.816 189.864L110.624 191.904C110.208 192.112 109.688 192.216 109.064 192.216C108.504 192.216 108 192.12 107.552 191.928C107.104 191.736 106.752 191.448 106.496 191.064C106.24 190.664 106.112 190.168 106.112 189.576V189.48L106.688 189.384C106.592 189.992 106.328 190.512 105.896 190.944C105.464 191.36 104.936 191.68 104.312 191.904C103.704 192.128 103.072 192.24 102.416 192.24C101.6 192.24 100.896 192.12 100.304 191.88C99.7116 191.624 99.2556 191.256 98.9356 190.776C98.6156 190.296 98.4556 189.704 98.4556 189C98.4556 188.104 98.7436 187.376 99.3196 186.816C99.8956 186.24 100.72 185.848 101.792 185.64L106.304 184.728L106.28 186.768L103.4 187.344C102.856 187.456 102.44 187.608 102.152 187.8C101.88 187.976 101.744 188.272 101.744 188.688C101.744 189.088 101.888 189.392 102.176 189.6C102.48 189.808 102.84 189.912 103.256 189.912C103.592 189.912 103.92 189.872 104.24 189.792C104.56 189.712 104.848 189.584 105.104 189.408C105.36 189.232 105.56 188.992 105.704 188.688C105.848 188.384 105.92 188.016 105.92 187.584V184.344ZM116.64 176.328V188.088C116.64 188.664 116.784 189.088 117.072 189.36C117.376 189.616 117.784 189.744 118.296 189.744C118.696 189.744 119.048 189.688 119.352 189.576C119.656 189.448 119.928 189.28 120.168 189.072L120.696 191.256C120.312 191.56 119.832 191.8 119.256 191.976C118.68 192.152 118.072 192.24 117.432 192.24C116.632 192.24 115.92 192.12 115.296 191.88C114.688 191.64 114.208 191.256 113.856 190.728C113.52 190.2 113.352 189.496 113.352 188.616V177.24L116.64 176.328ZM120.48 180V182.448H111.144V180H120.48ZM129.662 184.344C129.662 183.656 129.462 183.12 129.062 182.736C128.678 182.352 128.166 182.16 127.526 182.16C126.934 182.16 126.414 182.312 125.966 182.616C125.518 182.92 125.19 183.424 124.982 184.128L122.174 183.264C122.446 182.208 123.038 181.36 123.95 180.72C124.878 180.08 126.118 179.76 127.67 179.76C128.726 179.76 129.646 179.928 130.43 180.264C131.214 180.584 131.822 181.072 132.254 181.728C132.702 182.384 132.926 183.208 132.926 184.2V189.072C132.926 189.68 133.214 189.984 133.79 189.984C134.062 189.984 134.318 189.944 134.558 189.864L134.366 191.904C133.95 192.112 133.43 192.216 132.806 192.216C132.246 192.216 131.742 192.12 131.294 191.928C130.846 191.736 130.494 191.448 130.238 191.064C129.982 190.664 129.854 190.168 129.854 189.576V189.48L130.43 189.384C130.334 189.992 130.07 190.512 129.638 190.944C129.206 191.36 128.678 191.68 128.054 191.904C127.446 192.128 126.814 192.24 126.158 192.24C125.342 192.24 124.638 192.12 124.046 191.88C123.454 191.624 122.998 191.256 122.678 190.776C122.358 190.296 122.198 189.704 122.198 189C122.198 188.104 122.486 187.376 123.062 186.816C123.638 186.24 124.462 185.848 125.534 185.64L130.046 184.728L130.022 186.768L127.142 187.344C126.598 187.456 126.182 187.608 125.894 187.8C125.622 187.976 125.486 188.272 125.486 188.688C125.486 189.088 125.63 189.392 125.918 189.6C126.222 189.808 126.582 189.912 126.998 189.912C127.334 189.912 127.662 189.872 127.982 189.792C128.302 189.712 128.59 189.584 128.846 189.408C129.102 189.232 129.302 188.992 129.446 188.688C129.59 188.384 129.662 188.016 129.662 187.584V184.344Z" fill="url(#paint1_linear_575_2)"/>
<path d="M359.837 163.336H368.189V166H356.525V150.16H359.837V163.336ZM375.96 166.24C374.696 166.24 373.592 165.992 372.648 165.496C371.72 165 371 164.288 370.488 163.36C369.976 162.432 369.72 161.312 369.72 160C369.72 158.688 369.976 157.568 370.488 156.64C371 155.712 371.712 155 372.624 154.504C373.552 154.008 374.608 153.76 375.792 153.76C377.008 153.76 378.04 154.008 378.888 154.504C379.736 154.984 380.384 155.648 380.832 156.496C381.28 157.328 381.504 158.28 381.504 159.352C381.504 159.672 381.496 159.976 381.48 160.264C381.464 160.552 381.44 160.808 381.408 161.032H371.832V158.752H379.968L378.384 159.328C378.384 158.32 378.152 157.544 377.688 157C377.24 156.456 376.6 156.184 375.768 156.184C375.16 156.184 374.632 156.328 374.184 156.616C373.752 156.904 373.424 157.336 373.2 157.912C372.976 158.472 372.864 159.184 372.864 160.048C372.864 160.896 372.984 161.6 373.224 162.16C373.48 162.704 373.832 163.112 374.28 163.384C374.744 163.656 375.296 163.792 375.936 163.792C376.64 163.792 377.208 163.656 377.64 163.384C378.072 163.112 378.408 162.736 378.648 162.256L381.264 163.264C381.008 163.888 380.616 164.424 380.088 164.872C379.576 165.32 378.96 165.664 378.24 165.904C377.536 166.128 376.776 166.24 375.96 166.24ZM396.162 166.24C395.17 166.24 394.282 165.992 393.498 165.496C392.73 165 392.122 164.288 391.674 163.36C391.242 162.432 391.026 161.32 391.026 160.024C391.026 158.696 391.258 157.568 391.722 156.64C392.186 155.696 392.81 154.984 393.594 154.504C394.394 154.008 395.29 153.76 396.282 153.76C397.338 153.76 398.21 154.064 398.898 154.672C399.586 155.28 400.034 156.064 400.242 157.024L399.93 157.408V148.744H403.218V166H400.266L400.05 162.352L400.458 162.544C400.346 163.296 400.09 163.952 399.69 164.512C399.29 165.056 398.786 165.48 398.178 165.784C397.57 166.088 396.898 166.24 396.162 166.24ZM397.122 163.72C397.698 163.72 398.194 163.576 398.61 163.288C399.026 162.984 399.346 162.544 399.57 161.968C399.81 161.392 399.93 160.704 399.93 159.904C399.93 159.136 399.818 158.488 399.594 157.96C399.37 157.416 399.05 157 398.634 156.712C398.218 156.424 397.73 156.28 397.17 156.28C396.274 156.28 395.57 156.6 395.058 157.24C394.562 157.864 394.314 158.784 394.314 160C394.314 161.216 394.562 162.144 395.058 162.784C395.554 163.408 396.242 163.72 397.122 163.72ZM408.329 152.272C407.641 152.272 407.129 152.128 406.793 151.84C406.457 151.536 406.289 151.096 406.289 150.52C406.289 149.928 406.457 149.488 406.793 149.2C407.129 148.896 407.641 148.744 408.329 148.744C409.017 148.744 409.529 148.896 409.865 149.2C410.201 149.488 410.369 149.928 410.369 150.52C410.369 151.096 410.201 151.536 409.865 151.84C409.529 152.128 409.017 152.272 408.329 152.272ZM409.961 154V166H406.673V154H409.961ZM424.511 151.144L424.895 153.496C424.831 153.496 424.759 153.496 424.679 153.496C424.615 153.48 424.543 153.472 424.463 153.472C423.727 153.472 423.175 153.64 422.807 153.976C422.439 154.296 422.255 154.744 422.255 155.32L420.911 154.768C420.911 154.128 421.039 153.536 421.295 152.992C421.551 152.432 421.927 151.984 422.423 151.648C422.935 151.312 423.543 151.144 424.247 151.144C424.279 151.144 424.319 151.144 424.367 151.144C424.415 151.144 424.463 151.144 424.511 151.144ZM420.575 163.744C421.871 163.744 422.871 164.024 423.575 164.584C424.279 165.144 424.631 165.928 424.631 166.936C424.631 167.848 424.367 168.616 423.839 169.24C423.311 169.88 422.567 170.36 421.607 170.68C420.663 171 419.567 171.16 418.319 171.16C416.255 171.16 414.743 170.872 413.783 170.296C412.839 169.72 412.367 168.968 412.367 168.04C412.367 167.384 412.615 166.832 413.111 166.384C413.623 165.936 414.463 165.688 415.631 165.64L415.511 166.024C414.679 165.88 414.039 165.608 413.591 165.208C413.159 164.792 412.943 164.224 412.943 163.504C412.943 162.768 413.223 162.168 413.783 161.704C414.359 161.224 415.135 160.944 416.111 160.864L417.551 161.536H417.215C416.527 161.584 416.039 161.728 415.751 161.968C415.479 162.192 415.343 162.448 415.343 162.736C415.343 163.072 415.471 163.328 415.727 163.504C415.999 163.664 416.383 163.744 416.879 163.744H420.575ZM418.343 168.904C419.175 168.904 419.855 168.832 420.383 168.688C420.927 168.544 421.327 168.36 421.583 168.136C421.855 167.912 421.991 167.664 421.991 167.392C421.991 167.088 421.871 166.84 421.631 166.648C421.391 166.472 420.959 166.384 420.335 166.384H416.279C415.895 166.384 415.575 166.48 415.319 166.672C415.079 166.864 414.959 167.128 414.959 167.464C414.959 167.912 415.255 168.264 415.847 168.52C416.455 168.776 417.287 168.904 418.343 168.904ZM418.367 153.76C419.487 153.76 420.455 153.928 421.271 154.264C422.103 154.584 422.735 155.048 423.167 155.656C423.615 156.264 423.839 156.992 423.839 157.84C423.839 158.672 423.615 159.392 423.167 160C422.735 160.608 422.103 161.08 421.271 161.416C420.455 161.736 419.487 161.896 418.367 161.896C416.591 161.896 415.231 161.536 414.287 160.816C413.359 160.08 412.895 159.088 412.895 157.84C412.895 156.992 413.111 156.264 413.543 155.656C413.991 155.048 414.623 154.584 415.439 154.264C416.255 153.928 417.231 153.76 418.367 153.76ZM418.367 155.824C417.727 155.824 417.199 156 416.783 156.352C416.367 156.704 416.159 157.192 416.159 157.816C416.159 158.44 416.367 158.936 416.783 159.304C417.199 159.656 417.727 159.832 418.367 159.832C419.007 159.832 419.527 159.656 419.927 159.304C420.343 158.936 420.551 158.44 420.551 157.816C420.551 157.192 420.343 156.704 419.927 156.352C419.527 156 419.007 155.824 418.367 155.824ZM428.275 152.272C427.587 152.272 427.075 152.128 426.739 151.84C426.403 151.536 426.235 151.096 426.235 150.52C426.235 149.928 426.403 149.488 426.739 149.2C427.075 148.896 427.587 148.744 428.275 148.744C428.963 148.744 429.475 148.896 429.811 149.2C430.147 149.488 430.315 149.928 430.315 150.52C430.315 151.096 430.147 151.536 429.811 151.84C429.475 152.128 428.963 152.272 428.275 152.272ZM429.907 154V166H426.619V154H429.907ZM437.64 150.328V162.088C437.64 162.664 437.784 163.088 438.072 163.36C438.376 163.616 438.784 163.744 439.296 163.744C439.696 163.744 440.048 163.688 440.352 163.576C440.656 163.448 440.928 163.28 441.168 163.072L441.696 165.256C441.312 165.56 440.832 165.8 440.256 165.976C439.68 166.152 439.072 166.24 438.432 166.24C437.632 166.24 436.92 166.12 436.296 165.88C435.688 165.64 435.208 165.256 434.856 164.728C434.52 164.2 434.352 163.496 434.352 162.616V151.24L437.64 150.328ZM441.48 154V156.448H432.144V154H441.48ZM450.662 158.344C450.662 157.656 450.462 157.12 450.062 156.736C449.678 156.352 449.166 156.16 448.526 156.16C447.934 156.16 447.414 156.312 446.966 156.616C446.518 156.92 446.19 157.424 445.982 158.128L443.174 157.264C443.446 156.208 444.038 155.36 444.95 154.72C445.878 154.08 447.118 153.76 448.67 153.76C449.726 153.76 450.646 153.928 451.43 154.264C452.214 154.584 452.822 155.072 453.254 155.728C453.702 156.384 453.926 157.208 453.926 158.2V163.072C453.926 163.68 454.214 163.984 454.79 163.984C455.062 163.984 455.318 163.944 455.558 163.864L455.366 165.904C454.95 166.112 454.43 166.216 453.806 166.216C453.246 166.216 452.742 166.12 452.294 165.928C451.846 165.736 451.494 165.448 451.238 165.064C450.982 164.664 450.854 164.168 450.854 163.576V163.48L451.43 163.384C451.334 163.992 451.07 164.512 450.638 164.944C450.206 165.36 449.678 165.68 449.054 165.904C448.446 166.128 447.814 166.24 447.158 166.24C446.342 166.24 445.638 166.12 445.046 165.88C444.454 165.624 443.998 165.256 443.678 164.776C443.358 164.296 443.198 163.704 443.198 163C443.198 162.104 443.486 161.376 444.062 160.816C444.638 160.24 445.462 159.848 446.534 159.64L451.046 158.728L451.022 160.768L448.142 161.344C447.598 161.456 447.182 161.608 446.894 161.8C446.622 161.976 446.486 162.272 446.486 162.688C446.486 163.088 446.63 163.392 446.918 163.6C447.222 163.808 447.582 163.912 447.998 163.912C448.334 163.912 448.662 163.872 448.982 163.792C449.302 163.712 449.59 163.584 449.846 163.408C450.102 163.232 450.302 162.992 450.446 162.688C450.59 162.384 450.662 162.016 450.662 161.584V158.344ZM460.843 148.744V162.304C460.843 162.864 460.939 163.256 461.131 163.48C461.323 163.704 461.643 163.816 462.091 163.816C462.363 163.816 462.587 163.8 462.763 163.768C462.939 163.72 463.163 163.656 463.435 163.576L463.147 165.736C462.875 165.896 462.531 166.016 462.115 166.096C461.715 166.192 461.315 166.24 460.915 166.24C459.747 166.24 458.891 165.96 458.347 165.4C457.819 164.824 457.555 163.912 457.555 162.664V148.744H460.843Z" fill="url(#paint2_linear_575_2)"/>
<path d="M174.825 14.336H183.177V17H171.513V1.16002H174.825V14.336ZM190.948 17.24C189.684 17.24 188.58 16.992 187.636 16.496C186.708 16 185.988 15.288 185.476 14.36C184.964 13.432 184.708 12.312 184.708 11C184.708 9.68802 184.964 8.56801 185.476 7.64001C185.988 6.71201 186.7 6.00001 187.612 5.50401C188.54 5.00801 189.596 4.76002 190.78 4.76002C191.996 4.76002 193.028 5.00801 193.876 5.50401C194.724 5.98401 195.372 6.64802 195.82 7.49602C196.268 8.32802 196.492 9.28001 196.492 10.352C196.492 10.672 196.484 10.976 196.468 11.264C196.452 11.552 196.428 11.808 196.396 12.032H186.82V9.75201H194.956L193.372 10.328C193.372 9.32002 193.14 8.54402 192.676 8.00002C192.228 7.45602 191.588 7.18401 190.756 7.18401C190.148 7.18401 189.62 7.32801 189.172 7.61601C188.74 7.90401 188.412 8.33602 188.188 8.91202C187.964 9.47202 187.852 10.184 187.852 11.048C187.852 11.896 187.972 12.6 188.212 13.16C188.468 13.704 188.82 14.112 189.268 14.384C189.732 14.656 190.284 14.792 190.924 14.792C191.628 14.792 192.196 14.656 192.628 14.384C193.06 14.112 193.396 13.736 193.636 13.256L196.252 14.264C195.996 14.888 195.604 15.424 195.076 15.872C194.564 16.32 193.948 16.664 193.228 16.904C192.524 17.128 191.764 17.24 190.948 17.24ZM213.671 17.24C212.935 17.24 212.263 17.088 211.655 16.784C211.063 16.464 210.567 16.032 210.167 15.488C209.783 14.928 209.519 14.304 209.375 13.616L209.711 13.184L209.519 17H206.615V-0.255981H209.903V8.38402L209.591 7.88001C209.847 6.98401 210.335 6.24002 211.055 5.64802C211.775 5.05602 212.679 4.76002 213.767 4.76002C214.711 4.76002 215.567 5.00801 216.335 5.50401C217.103 6.00001 217.703 6.71201 218.135 7.64001C218.583 8.56801 218.807 9.69602 218.807 11.024C218.807 12.32 218.583 13.432 218.135 14.36C217.703 15.288 217.095 16 216.311 16.496C215.543 16.992 214.663 17.24 213.671 17.24ZM212.687 14.72C213.567 14.72 214.255 14.408 214.751 13.784C215.263 13.144 215.519 12.216 215.519 11C215.519 9.78402 215.271 8.86401 214.775 8.24001C214.279 7.60001 213.591 7.28001 212.711 7.28001C212.135 7.28001 211.639 7.43202 211.223 7.73602C210.807 8.04002 210.479 8.47201 210.239 9.03201C210.015 9.59201 209.903 10.256 209.903 11.024C209.903 11.808 210.015 12.48 210.239 13.04C210.479 13.584 210.807 14 211.223 14.288C211.655 14.576 212.143 14.72 212.687 14.72ZM225.838 17.24C225.038 17.24 224.318 17.096 223.678 16.808C223.038 16.52 222.526 16.064 222.142 15.44C221.774 14.8 221.59 13.976 221.59 12.968V5.00002H224.878V12.176C224.878 13.104 225.07 13.752 225.454 14.12C225.838 14.472 226.39 14.648 227.11 14.648C227.446 14.648 227.774 14.592 228.094 14.48C228.414 14.352 228.694 14.16 228.934 13.904C229.19 13.648 229.39 13.32 229.534 12.92C229.678 12.504 229.75 12.016 229.75 11.456V5.00002H233.038V17H230.11L229.99 14.912C229.59 15.712 229.038 16.304 228.334 16.688C227.646 17.056 226.814 17.24 225.838 17.24ZM241.298 17.24C240.082 17.24 238.97 17.024 237.962 16.592C236.97 16.16 236.162 15.552 235.538 14.768L237.434 12.848C237.818 13.424 238.33 13.896 238.97 14.264C239.61 14.632 240.37 14.816 241.25 14.816C241.874 14.816 242.37 14.728 242.738 14.552C243.122 14.36 243.314 14.064 243.314 13.664C243.314 13.408 243.226 13.192 243.05 13.016C242.874 12.824 242.522 12.672 241.994 12.56L239.882 12.128C238.49 11.84 237.498 11.408 236.906 10.832C236.33 10.24 236.042 9.48002 236.042 8.55202C236.042 7.89602 236.234 7.28002 236.618 6.70402C237.018 6.12802 237.61 5.66401 238.394 5.31201C239.178 4.94401 240.154 4.76002 241.322 4.76002C242.522 4.76002 243.562 4.95201 244.442 5.33601C245.338 5.70401 246.042 6.25601 246.554 6.99201L244.586 8.91202C244.234 8.35202 243.77 7.92801 243.194 7.64001C242.634 7.33601 242.042 7.18401 241.418 7.18401C240.97 7.18401 240.586 7.23202 240.266 7.32802C239.946 7.42402 239.706 7.56002 239.546 7.73602C239.386 7.89602 239.306 8.10402 239.306 8.36002C239.306 8.61602 239.418 8.84001 239.642 9.03201C239.866 9.20801 240.274 9.36001 240.866 9.48801L243.314 9.99201C244.498 10.232 245.346 10.64 245.858 11.216C246.37 11.776 246.626 12.456 246.626 13.256C246.626 14.024 246.418 14.712 246.002 15.32C245.602 15.912 245.002 16.384 244.202 16.736C243.418 17.072 242.45 17.24 241.298 17.24ZM250.904 3.27202C250.216 3.27202 249.704 3.12801 249.368 2.84001C249.032 2.53601 248.864 2.09601 248.864 1.52001C248.864 0.928012 249.032 0.488012 249.368 0.200012C249.704 -0.103988 250.216 -0.255981 250.904 -0.255981C251.592 -0.255981 252.104 -0.103988 252.44 0.200012C252.776 0.488012 252.944 0.928012 252.944 1.52001C252.944 2.09601 252.776 2.53601 252.44 2.84001C252.104 3.12801 251.592 3.27202 250.904 3.27202ZM252.536 5.00002V17H249.248V5.00002H252.536ZM256.021 17V5.00002H258.973L259.165 8.60001L258.757 8.21602C258.949 7.43202 259.253 6.78402 259.669 6.27202C260.085 5.76002 260.589 5.38401 261.181 5.14401C261.789 4.88801 262.453 4.76002 263.173 4.76002C264.005 4.76002 264.741 4.92001 265.381 5.24001C266.037 5.56001 266.549 6.04802 266.917 6.70402C267.301 7.34402 267.493 8.15201 267.493 9.12801V17H264.205V10.064C264.205 9.04002 264.005 8.33602 263.605 7.95202C263.205 7.55202 262.685 7.35201 262.045 7.35201C261.597 7.35201 261.157 7.46402 260.725 7.68802C260.309 7.89602 259.965 8.24002 259.693 8.72002C259.437 9.20002 259.309 9.84001 259.309 10.64V17H256.021ZM276.448 17.24C275.184 17.24 274.08 16.992 273.136 16.496C272.208 16 271.488 15.288 270.976 14.36C270.464 13.432 270.208 12.312 270.208 11C270.208 9.68802 270.464 8.56801 270.976 7.64001C271.488 6.71201 272.2 6.00001 273.112 5.50401C274.04 5.00801 275.096 4.76002 276.28 4.76002C277.496 4.76002 278.528 5.00801 279.376 5.50401C280.224 5.98401 280.872 6.64802 281.32 7.49602C281.768 8.32802 281.992 9.28001 281.992 10.352C281.992 10.672 281.984 10.976 281.968 11.264C281.952 11.552 281.928 11.808 281.896 12.032H272.32V9.75201H280.456L278.872 10.328C278.872 9.32002 278.64 8.54402 278.176 8.00002C277.728 7.45602 277.088 7.18401 276.256 7.18401C275.648 7.18401 275.12 7.32801 274.672 7.61601C274.24 7.90401 273.912 8.33602 273.688 8.91202C273.464 9.47202 273.352 10.184 273.352 11.048C273.352 11.896 273.472 12.6 273.712 13.16C273.968 13.704 274.32 14.112 274.768 14.384C275.232 14.656 275.784 14.792 276.424 14.792C277.128 14.792 277.696 14.656 278.128 14.384C278.56 14.112 278.896 13.736 279.136 13.256L281.752 14.264C281.496 14.888 281.104 15.424 280.576 15.872C280.064 16.32 279.448 16.664 278.728 16.904C278.024 17.128 277.264 17.24 276.448 17.24ZM289.579 17.24C288.363 17.24 287.251 17.024 286.243 16.592C285.251 16.16 284.443 15.552 283.819 14.768L285.715 12.848C286.099 13.424 286.611 13.896 287.251 14.264C287.891 14.632 288.651 14.816 289.531 14.816C290.155 14.816 290.651 14.728 291.019 14.552C291.403 14.36 291.595 14.064 291.595 13.664C291.595 13.408 291.507 13.192 291.331 13.016C291.155 12.824 290.803 12.672 290.275 12.56L288.163 12.128C286.771 11.84 285.779 11.408 285.187 10.832C284.611 10.24 284.323 9.48002 284.323 8.55202C284.323 7.89602 284.515 7.28002 284.899 6.70402C285.299 6.12802 285.891 5.66401 286.675 5.31201C287.459 4.94401 288.435 4.76002 289.603 4.76002C290.803 4.76002 291.843 4.95201 292.723 5.33601C293.619 5.70401 294.323 6.25601 294.835 6.99201L292.867 8.91202C292.515 8.35202 292.051 7.92801 291.475 7.64001C290.915 7.33601 290.323 7.18401 289.699 7.18401C289.251 7.18401 288.867 7.23202 288.547 7.32802C288.227 7.42402 287.987 7.56002 287.827 7.73602C287.667 7.89602 287.587 8.10402 287.587 8.36002C287.587 8.61602 287.699 8.84001 287.923 9.03201C288.147 9.20801 288.555 9.36001 289.147 9.48801L291.595 9.99201C292.779 10.232 293.627 10.64 294.139 11.216C294.651 11.776 294.907 12.456 294.907 13.256C294.907 14.024 294.699 14.712 294.283 15.32C293.883 15.912 293.283 16.384 292.483 16.736C291.699 17.072 290.731 17.24 289.579 17.24ZM302.329 17.24C301.113 17.24 300.001 17.024 298.993 16.592C298.001 16.16 297.193 15.552 296.569 14.768L298.465 12.848C298.849 13.424 299.361 13.896 300.001 14.264C300.641 14.632 301.401 14.816 302.281 14.816C302.905 14.816 303.401 14.728 303.769 14.552C304.153 14.36 304.345 14.064 304.345 13.664C304.345 13.408 304.257 13.192 304.081 13.016C303.905 12.824 303.553 12.672 303.025 12.56L300.913 12.128C299.521 11.84 298.529 11.408 297.937 10.832C297.361 10.24 297.073 9.48002 297.073 8.55202C297.073 7.89602 297.265 7.28002 297.649 6.70402C298.049 6.12802 298.641 5.66401 299.425 5.31201C300.209 4.94401 301.185 4.76002 302.353 4.76002C303.553 4.76002 304.593 4.95201 305.473 5.33601C306.369 5.70401 307.073 6.25601 307.585 6.99201L305.617 8.91202C305.265 8.35202 304.801 7.92801 304.225 7.64001C303.665 7.33601 303.073 7.18401 302.449 7.18401C302.001 7.18401 301.617 7.23202 301.297 7.32802C300.977 7.42402 300.737 7.56002 300.577 7.73602C300.417 7.89602 300.337 8.10402 300.337 8.36002C300.337 8.61602 300.449 8.84001 300.673 9.03201C300.897 9.20801 301.305 9.36001 301.897 9.48801L304.345 9.99201C305.529 10.232 306.377 10.64 306.889 11.216C307.401 11.776 307.657 12.456 307.657 13.256C307.657 14.024 307.449 14.712 307.033 15.32C306.633 15.912 306.033 16.384 305.233 16.736C304.449 17.072 303.481 17.24 302.329 17.24Z" fill="url(#paint3_linear_575_2)"/>
<path d="M354.767 12.82C354.391 13.224 354.415 13.857 354.82 14.233L361.416 20.356C361.821 20.732 362.453 20.708 362.829 20.303C363.205 19.898 363.181 19.266 362.777 18.89L356.913 13.447L362.356 7.58409C362.732 7.17939 362.708 6.54659 362.303 6.17089C361.898 5.79519 361.266 5.81869 360.89 6.22349L354.767 12.82ZM446.684 100.578C447.003 101.028 447.627 101.135 448.078 100.816L455.425 95.618C455.875 95.299 455.982 94.675 455.663 94.224C455.344 93.773 454.72 93.666 454.269 93.985L447.739 98.606L443.118 92.075C442.799 91.625 442.175 91.518 441.724 91.837C441.273 92.156 441.166 92.78 441.485 93.231L446.684 100.578ZM355.537 14.499C373.335 13.837 399.211 17.349 419.052 29.944C428.955 36.231 437.334 44.767 442.484 56.165C447.633 67.56 449.587 81.893 446.514 99.831L448.486 100.169C451.613 81.907 449.647 67.16 444.307 55.341C438.968 43.524 430.291 34.711 420.123 28.256C399.822 15.368 373.498 11.8296 355.463 12.501L355.537 14.499Z" fill="#D2D2D2"/>
<path d="M7.98319 138.745C8.42827 139.072 9.05416 138.976 9.38115 138.531L14.7098 131.278C15.0368 130.833 14.9411 130.207 14.496 129.88C14.0509 129.553 13.425 129.649 13.098 130.094L8.36146 136.541L1.91441 131.804C1.46933 131.477 0.843445 131.573 0.516451 132.018C0.189456 132.463 0.28518 133.089 0.730257 133.416L7.98319 138.745ZM105.726 20.198C106.145 19.839 106.194 19.208 105.835 18.788L99.9823 11.9513C99.6232 11.5317 98.9919 11.4827 98.5723 11.8419C98.1528 12.201 98.1038 12.832 98.4629 13.252L103.665 19.329L97.5878 24.532C97.1682 24.891 97.1192 25.522 97.4784 25.942C97.8375 26.361 98.4688 26.41 98.8884 26.051L105.726 20.198ZM9.56377 137.788C6.33268 116.661 7.26962 85.475 20.4717 60.519C27.0624 48.06 36.7023 37.165 50.4054 29.822C64.1104 22.477 81.9496 18.648 104.998 20.436L105.153 18.442C81.8009 16.63 63.5651 20.5 49.4607 28.059C35.3545 35.618 25.4506 46.83 18.7038 59.584C5.23092 85.052 4.31786 116.716 7.58676 138.09L9.56377 137.788Z" fill="#D2D2D2"/>
<path d="M104.567 244.599C104.069 244.838 103.859 245.435 104.099 245.933L107.996 254.045C108.235 254.543 108.832 254.753 109.33 254.514C109.828 254.275 110.038 253.677 109.799 253.179L106.334 245.968L113.545 242.504C114.043 242.265 114.253 241.668 114.014 241.17C113.775 240.672 113.177 240.462 112.679 240.701L104.567 244.599ZM401.482 222.811C401.377 222.268 400.853 221.913 400.311 222.018L391.474 223.723C390.931 223.828 390.577 224.353 390.681 224.895C390.786 225.437 391.31 225.792 391.853 225.687L399.708 224.171L401.223 232.026C401.328 232.569 401.853 232.923 402.395 232.819C402.937 232.714 403.292 232.19 403.187 231.647L401.482 222.811ZM104.669 246.444C142.488 259.718 202.67 274.522 260.341 275.787C317.94 277.051 373.422 264.813 401.328 223.56L399.672 222.44C372.378 262.787 317.86 275.049 260.384 273.788C202.98 272.528 143.012 257.782 105.331 244.556L104.669 246.444Z" fill="#D2D2D2"/>
</g>
<defs>
<linearGradient id="paint0_linear_575_2" x1="178" y1="-8.99998" x2="313" y2="17" gradientUnits="userSpaceOnUse">
<stop stop-color="#7CABF0"/>
<stop offset="1" stop-color="#387FE5"/>
</linearGradient>
<linearGradient id="paint1_linear_575_2" x1="30" y1="166" x2="165" y2="192" gradientUnits="userSpaceOnUse">
<stop stop-color="#7CABF0"/>
<stop offset="1" stop-color="#387FE5"/>
</linearGradient>
<linearGradient id="paint2_linear_575_2" x1="348" y1="140" x2="483" y2="166" gradientUnits="userSpaceOnUse">
<stop stop-color="#7CABF0"/>
<stop offset="1" stop-color="#387FE5"/>
</linearGradient>
<linearGradient id="paint3_linear_575_2" x1="178" y1="-8.99998" x2="313" y2="17" gradientUnits="userSpaceOnUse">
<stop stop-color="#7CABF0"/>
<stop offset="1" stop-color="#387FE5"/>
</linearGradient>
<clipPath id="clip0_575_2">
<rect width="463" height="276" fill="white"/>
</clipPath>
</defs>
</svg>
